<svg xmlns="http://www.w3.org/2000/svg" xmlns:xlink="http://www.w3.org/1999/xlink" viewBox="0 0 1678 2098"><path d="M546.55 1571.53s-23.49-7.15 0-20.42c0 0-25.53-17.37-32.68-74.56l11.24-202.21 28.59-288 25.53-231.83s18.39-98 64.34-147.06l10.22-40.85s89.87 20.42 171.57 9.19l137.87 1 43.92-15.32s14.3 26.55 14.3 42.89c0 0 29.61 35.75 38.81 65.36 0 0 36.76 130.73 63.31 354.39l29.62 215.49 13.28 128.68s14.3 96 0 130.72l-11.24 43.92-1 21.44s-72.51-3.06-83.74 7.15c0 0-33.7-50-62.3-126.64L985.7 1352l-52.08-166.47-74.56-162.38L839 978.17l-36.11 82.72-23.49 56.17-39.83 136.85S711 1379.53 712 1385.66l-24.51 86.81s-29.62 62.3-47 73.53-8.17 25.53-8.17 25.53-75.04-10.72-85.77 0Z" data-name="Layer 2"/></svg>