<svg xmlns="http://www.w3.org/2000/svg" xmlns:xlink="http://www.w3.org/1999/xlink" viewBox="0 0 1678 2098">
    <path d="m453.62 1350.94 49-255.32s5.1-33.71 16.34-34.73c0 0-7.15-4.08 9.19-61.27 0 0 15.32-101.11 82.72-137.88l10.22-51.06s67.4 13.28 81.7 19.41c0 0 80.38 16.34 136.19 11.23l94.62 3.06 24.51-11.23 25.53 3.06 64.36-25.53s23.49-11.23 23.49 23.49l10.21 26.55 10.21 6.13s33.71 39.83 46 86.81c0 0 42.9 123.57 52.09 211.4l35.74 185.88a160.58 160.58 0 0 1-42.89 12.25l-65.36 22.47-110.3 27.57-130.72 32.68-14.3-34.72 4.08-17.36-13.27-10.21-13.98-55.15s-.36 26.55-27.94 117.44l-18.38-12.25-27.57 2Z" data-name="Layer 2" />
</svg>