<svg xmlns="http://www.w3.org/2000/svg" xmlns:xlink="http://www.w3.org/1999/xlink" viewBox="0 0 1678 2098">
    <path d="M357.62 1551.11v-36.77s-32.68-37.79 0-125.62L396.43 1257l70.46-214.47 14.3-23.49 43.92-84.76s56.17-84.77 93.95-98c0 0 46-17.36 85.79-70.47 0 0 6.13-43.91 0-68.42S722.21 633 722.21 633l16.34-30.64S802.89 539 828.43 540s77.57 34.77 107.23 64.38 29.62 64.34 29.62 64.34v66.39s-6.13 66.38 89.87 97c0 0 49 43.91 118.47 135.83 0 0 62.29 94 72.51 143l49 158.29s57.19 195.07 43.91 227.75c0 0-3.06 39.83-3.06 47l-18.38 7.15-41.88 25.53-13.27-26.55-17.36-5.11s-95-136.85-116.43-198.13c0 0-28.59 82.72-52.08 88.85 0 0-162.39-71.49-469.79-7.15l-49-75.57L471 1515.36a101.1 101.1 0 0 1-28.6 20.43l-13.27 33.7-24.51-5.11s-17.39-16.38-47-13.27Z" data-name="Layer 2" />
</svg>