<svg data-name="Layer 2" xmlns="http://www.w3.org/2000/svg" viewBox="0 0 1678 2098"><path d="m261.28 1410.17 11.57-47.32s-10.55-9.53 0-37.79 22.47-60.93 22.47-60.93L346 1155.19l38.13-83.4 26.21-59.58L439 958.77l31.66-57.2 46.3-75.23s58.55-57.53 73.87-69.11l55.49-43.57 26.89-16.34 35.75-23.15h6.46l23.83-18.72s65.71 47.32 171.58 2.38l19.4 12.94 11.58 1 81 54.12 10.21 9.2 24.17 19.4s30.64 25.19 32.34 26.89l53.11 49.37 14.64 12.93L1174 872l53.44 92.25 33 66.73 81.19 171.4 56.42 112.6s16.09 16.59 7.15 54.12l8.94 34.73s-66.13 29.87-82.22 45.44c0 0-24.51-32.17-29.1-37.53h-7.41s-32.68-29.61-31.91-31.15l-36.5-37.31-18.89-24.77-11.49-15.32-19.66-27.83-3.07 77.87-.76 49.79s-3.32 30.64-.77 32.43l-1.28 61.78-.25 7.92H1110l-31.91-1.87-59.41-1.54-19.23-.17-9.87.52-35.15.51-54.38-.17-372.18.42-26 .77 3.32-248.17s-21.45 30.64-31.15 41.87l-40.34 51.57-14.81 19.92s-21.44 23.49-45.95 40.85l-25.54 37.79s-54.29-35.24-86.12-37.28Z" /></svg>