<svg data-name="Layer 2" xmlns="http://www.w3.org/2000/svg" viewBox="0 0 1678 2098"><path d="M331.57 1502.6s11.24-40.86 6.13-55.66 6.64-57.2 6.64-57.2l20.94-72L459.74 1018s40.09-167.23 210.9-269.11c0 0 67.4-39.83 75.83-39.83 0 0 17.62-9.95 17.62-13s28.34 26.81 148.59 12.26c0 0 20.68-8.43 24.51-7.66s13.81 12.23 22.21 16.06 28.34 19.92 42.9 25.28 98.81 72.77 101.87 78.13 81.19 80.42 117.19 173.1c0 0 68.94 180 98 328.6l28.34 111.83s2.3 23.74-5.36 31.4l5.69 52.09s-36.33-3.06-76.16 20.68c0 0-7.65-29.11-26.8-47.49 0 0-24.51-46-48.26-53.62l-53.62-83.49-45.19 67.41-13.78 6.13-20.65 35.23s-65.87-17.62-148.57-19.15-253.53 0-253.53 0l-37.56 6.15-29.91 9.17-13-41.36-13.79-10s-20.68-43.66-23-61.28l-71.21 88.9s-23.74 23.74-29.11 37.53c0 0-24.51 25.27-29.87 36l-10 17.61s-46.15-22.97-72.45-22.97Z" /></svg>